<svg width="18" height="19" viewBox="0 0 18 19" fill="none" xmlns="http://www.w3.org/2000/svg">
<path d="M17.75 9.91667C17.75 8.6 17.0208 7.45833 15.96 6.91667C16.0883 6.55417 16.1583 6.1625 16.1583 5.75C16.1583 3.90833 14.7333 2.41833 12.9767 2.41833C12.585 2.41833 12.21 2.48833 11.8633 2.62667C11.3483 1.5125 10.2583 0.75 9 0.75C7.74166 0.75 6.65333 1.51417 6.13583 2.625C5.78999 2.4875 5.41416 2.41667 5.02249 2.41667C3.26416 2.41667 1.84083 3.90833 1.84083 5.75C1.84083 6.16167 1.90999 6.55333 2.03833 6.91667C0.978327 7.45833 0.249161 8.59833 0.249161 9.91667C0.249161 11.1625 0.900828 12.2483 1.86749 12.8217C1.85083 12.9633 1.84083 13.105 1.84083 13.25C1.84083 15.0917 3.26416 16.5833 5.02249 16.5833C5.41416 16.5833 5.78916 16.5117 6.13499 16.375C6.65166 17.4867 7.73999 18.25 8.99916 18.25C10.2592 18.25 11.3475 17.4867 11.8633 16.375C12.2092 16.5108 12.5842 16.5817 12.9767 16.5817C14.735 16.5817 16.1583 15.09 16.1583 13.2483C16.1583 13.1033 16.1483 12.9617 16.1308 12.8208C17.0958 12.2483 17.75 11.1625 17.75 9.9175V9.91667ZM12.2367 7.13833L8.625 12.555C8.50416 12.7358 8.30666 12.8333 8.10416 12.8333C7.98499 12.8333 7.86416 12.8 7.75749 12.7283L7.66166 12.65L5.64916 10.6375C5.40499 10.3933 5.40499 9.9975 5.64916 9.75417C5.89333 9.51083 6.28916 9.50917 6.53249 9.75417L8.00749 11.2267L11.195 6.44333C11.3867 6.15583 11.775 6.08 12.0617 6.27083C12.35 6.4625 12.4283 6.85083 12.2367 7.1375V7.13833Z" fill="#D9D9D9"/>
</svg>
