<svg width="20" height="20" viewBox="0 0 20 20" fill="none" xmlns="http://www.w3.org/2000/svg">
<path d="M14.6083 6.22498L10.4417 2.05831C10.1975 1.81414 9.80167 1.81414 9.55833 2.05831L5.39167 6.22498C5.14667 6.46914 5.14667 6.86497 5.39167 7.10831C5.63667 7.35164 6.03083 7.35331 6.275 7.10831L9.375 4.00831V12.5C9.375 12.845 9.655 13.125 10 13.125C10.345 13.125 10.625 12.845 10.625 12.5V4.00831L13.725 7.10831C13.8467 7.23081 14.0067 7.29164 14.1667 7.29164C14.3267 7.29164 14.4867 7.23164 14.6083 7.10831C14.8525 6.86414 14.8525 6.46914 14.6083 6.22498Z" fill="#6E767D"/>
<path d="M16.4233 18.2866H3.57667C2.52334 18.2866 1.66667 17.43 1.66667 16.3766V11.6666C1.66667 11.3216 1.94667 11.0416 2.29167 11.0416C2.63667 11.0416 2.91667 11.3216 2.91667 11.6666V16.3766C2.91667 16.7408 3.2125 17.0366 3.57667 17.0366H16.4233C16.7875 17.0366 17.0833 16.7408 17.0833 16.3766V11.6666C17.0833 11.3216 17.3633 11.0416 17.7083 11.0416C18.0533 11.0416 18.3333 11.3216 18.3333 11.6666V16.3766C18.3333 17.43 17.4767 18.2866 16.4233 18.2866Z" fill="#6E767D"/>
</svg>
